<svg width="230" height="230" viewBox="0 0 230 230" fill="none" xmlns="http://www.w3.org/2000/svg">
<rect width="230" height="230" fill="#2D2D2D"/>
<path d="M92.0001 184C104.703 184 115 173.703 115 161V138H92.0001C79.2976 138 69.0001 148.297 69.0001 161C69.0001 173.703 79.2976 184 92.0001 184Z" fill="#0ACF83"/>
<path d="M69.0001 115C69.0001 102.297 79.2976 92 92.0001 92H115V138H92.0001C79.2976 138 69.0001 127.703 69.0001 115Z" fill="#A259FF"/>
<path d="M69.0001 69C69.0001 56.2974 79.2976 46 92.0001 46H115V92H92.0001C79.2976 92 69.0001 81.7026 69.0001 69Z" fill="#F24E1E"/>
<path d="M115 46H138C150.703 46 161 56.2974 161 69C161 81.7026 150.703 92 138 92H115V46Z" fill="#FF7262"/>
<path d="M161 115C161 127.703 150.703 138 138 138C125.297 138 115 127.703 115 115C115 102.297 125.297 92 138 92C150.703 92 161 102.297 161 115Z" fill="#1ABCFE"/>
</svg>
