<svg width="230" height="230" viewBox="0 0 230 230" fill="none" xmlns="http://www.w3.org/2000/svg">
<rect width="230" height="230" fill="#2D2D2D"/>
<path d="M107.679 103.219H98.7842C99.1387 104.702 99.3159 106.216 99.3159 107.763C99.3159 113.435 97.189 117.818 92.9351 120.912C88.7134 124.005 82.2197 125.552 73.4541 125.552C71.5205 125.552 69.6836 125.456 67.9434 125.262C67.3633 125.778 66.9282 126.39 66.6382 127.099C66.3481 127.776 66.2031 128.469 66.2031 129.178C66.2031 130.499 66.7188 131.434 67.75 131.981C68.7812 132.497 70.6021 132.755 73.2124 132.755H84.1372C92.0972 132.755 97.7207 134.302 101.008 137.396C104.295 140.457 105.938 144.485 105.938 149.48C105.938 154.089 104.472 158.004 101.54 161.227C98.6392 164.482 94.8203 166.915 90.083 168.526C85.3779 170.138 80.3345 170.943 74.9526 170.943C65.3169 170.943 58.1143 169.477 53.3447 166.544C48.6074 163.612 46.2388 159.519 46.2388 154.266C46.2388 151.817 46.9478 149.561 48.3657 147.499C49.7837 145.436 51.8301 143.809 54.5049 142.616C53.0547 141.843 51.9429 140.747 51.1694 139.329C50.4282 137.879 50.0576 136.268 50.0576 134.495C50.0576 132.368 50.7505 130.29 52.1362 128.259C53.5542 126.197 55.8584 124.489 59.0488 123.135C55.5039 121.685 52.7808 119.687 50.8794 117.141C48.978 114.563 48.0273 111.534 48.0273 108.053C48.0273 102.124 50.2026 97.6763 54.5532 94.7114C58.936 91.7144 65.2363 90.1997 73.4541 90.1675C81.6074 90.1675 87.8271 91.521 92.1133 94.228C93.209 93.2935 94.5625 92.5039 96.1738 91.8594C97.7852 91.2148 99.5576 90.8926 101.491 90.8926H107.679V103.219ZM73.5991 116.174C76.3384 116.174 78.4331 115.578 79.8833 114.386C81.3335 113.161 82.0586 111.018 82.0586 107.957C82.0586 102.252 79.3032 99.4004 73.7925 99.4004C71.021 99.4004 68.894 100.045 67.4116 101.334C65.9292 102.591 65.188 104.782 65.188 107.908C65.188 110.551 65.897 112.597 67.3149 114.047C68.7329 115.465 70.8276 116.174 73.5991 116.174ZM65.9614 145.468C64.8013 147.047 64.2212 148.9 64.2212 151.027C64.2212 153.992 65.043 156.441 66.6865 158.375C68.3623 160.309 71.311 161.275 75.5327 161.275C79.3999 161.275 82.4614 160.615 84.7173 159.293C87.0054 157.972 88.1494 155.91 88.1494 153.106C88.1494 151.495 87.8755 150.141 87.3276 149.045C86.812 147.95 85.7808 147.08 84.2339 146.435C82.7192 145.791 80.5278 145.468 77.6597 145.468H65.9614ZM134.507 90.8926V146H116.525V90.8926H134.507ZM114.785 74.9404C114.785 73.168 115.268 71.5244 116.235 70.0098C117.234 68.4629 118.555 67.2383 120.199 66.3359C121.875 65.4336 123.663 64.9824 125.564 64.9824C127.498 64.9824 129.206 65.3691 130.688 66.1426C132.203 66.916 133.363 68.0117 134.169 69.4297C135.007 70.8154 135.426 72.4106 135.426 74.2153C135.426 75.9878 134.942 77.6475 133.976 79.1943C133.009 80.709 131.704 81.9336 130.06 82.8682C128.417 83.7705 126.644 84.2217 124.743 84.2217C122.841 84.2217 121.133 83.835 119.619 83.0615C118.104 82.2559 116.912 81.144 116.042 79.7261C115.204 78.3081 114.785 76.7129 114.785 74.9404ZM151.33 102.639H144.949V93.1646C147.785 92.3267 149.912 91.5532 151.33 90.8442C152.748 90.103 153.795 89.0234 154.472 87.6055C154.891 86.7676 155.712 84.8018 156.937 81.708L158.339 78.3242H169.215V90.8926H183.524V102.639H169.215V122.265C169.215 125.681 169.393 128.163 169.747 129.709C170.134 131.256 170.746 132.255 171.584 132.707C172.454 133.158 173.792 133.383 175.596 133.383C176.853 133.383 178.303 133.174 179.947 132.755C181.59 132.304 182.831 131.788 183.669 131.208L185.796 141.166C184.861 142.036 183.443 142.906 181.542 143.776C179.641 144.646 177.449 145.372 174.968 145.952C172.486 146.5 169.973 146.773 167.427 146.773C163.527 146.773 160.385 146.129 158 144.84C155.648 143.519 153.94 141.553 152.876 138.942C151.845 136.3 151.33 132.932 151.33 128.839V102.639Z" fill="#0ACF83"/>
</svg>
