<svg width="230" height="230" viewBox="0 0 230 230" fill="none" xmlns="http://www.w3.org/2000/svg">
<g clip-path="url(#clip0)">
<rect width="230" height="230" fill="#49021F"/>
<path d="M37.5 -2H192.5C216 -2 235 17 235 40.5V189.5C235 213 216 232 192.5 232H37.5C14 232 -5 213 -5 189.5V40.5C-5 17 14 -2 37.5 -2Z" fill="#49021F"/>
<path d="M82.2 59.2V161.8C82.2 162.9 81.7 163.4 80.8 163.4H61.2C60.3 163.4 59.9 162.9 59.9 161.8V59.2C59.9 58.3 60.4 57.9 61.3 57.9H80.8C81.4 57.8 82 58.2 82.1 58.9C82.2 59 82.2 59.1 82.2 59.2Z" fill="#FF3366"/>
<path d="M139.8 165C132.4 165.1 125 163.6 118.3 160.5C112 157.6 106.8 152.8 103.2 146.9C99.5 140.8 97.7 133.2 97.7 124.1C97.6 116.7 99.5 109.4 103.2 103C107 96.5 112.5 91.1 119.1 87.5C126.1 83.6 134.5 81.7 144.4 81.7C144.9 81.7 145.6 81.7 146.5 81.8C147.4 81.9 148.4 81.9 149.6 82V50.4C149.6 49.7 149.9 49.3 150.6 49.3H170.9C171.4 49.2 171.8 49.6 171.9 50C171.9 50.1 171.9 50.2 171.9 50.2V145.4C171.9 147.2 172 149.2 172.1 151.4C172.3 153.5 172.4 155.5 172.5 157.2C172.5 157.9 172.2 158.5 171.5 158.8C166.3 161 160.8 162.6 155.2 163.6C150.2 164.5 145 165 139.8 165ZM149.6 145V101C148.7 100.8 147.8 100.6 146.9 100.5C145.8 100.4 144.7 100.3 143.6 100.3C139.7 100.3 135.8 101.1 132.3 102.9C128.9 104.6 126 107.1 123.8 110.3C121.6 113.5 120.5 117.8 120.5 123C120.4 126.5 121 130 122.2 133.3C123.2 136 124.7 138.4 126.7 140.4C128.6 142.2 130.9 143.6 133.5 144.4C136.2 145.3 139 145.7 141.8 145.7C143.3 145.7 144.7 145.6 146 145.5C147.3 145.6 148.5 145.4 149.6 145Z" fill="#FF3366"/>
</g>
<defs>
<clipPath id="clip0">
<rect width="230" height="230" fill="white"/>
</clipPath>
</defs>
</svg>
