<svg width="230" height="230" viewBox="0 0 230 230" fill="none" xmlns="http://www.w3.org/2000/svg">
<rect width="230" height="230" fill="#EE9D00"/>
<path d="M51.3408 173.811C55.3398 172.316 58.8774 170.075 61.9536 167.087C65.0298 164.099 67.1392 160.166 68.2817 155.288C69.1167 151.816 69.666 147.531 69.9297 142.434C70.2373 137.292 70.3911 130.788 70.3911 122.922V62.6729H91.4849V122.592L91.5508 137.292C91.5508 141.467 91.4629 145.136 91.2871 148.3C91.1113 151.42 90.7598 154.321 90.2324 157.001C89.1338 162.758 86.6729 167.724 82.8496 171.899C79.0264 176.074 74.6758 179.238 69.7979 181.391C64.9639 183.588 60.5034 184.753 56.4165 184.885L51.3408 173.811ZM112.188 141.313C115.396 143.071 119.264 144.565 123.79 145.795C128.316 147.026 133.062 147.641 138.028 147.641C143.433 147.641 147.235 146.828 149.432 145.202C151.629 143.532 152.728 140.939 152.728 137.424C152.728 135.051 152.179 133.051 151.08 131.425C149.981 129.755 148.114 128.085 145.477 126.416C142.884 124.746 138.819 122.548 133.282 119.824C125.899 116.176 119.901 111.914 115.287 107.036C110.672 102.158 108.365 96.0273 108.365 88.6445C108.365 82.3164 109.903 77.1528 112.979 73.1538C116.1 69.1108 120.274 66.1885 125.504 64.3867C130.777 62.541 136.732 61.6182 143.368 61.6182C149.08 61.6182 154.266 62.2334 158.924 63.4639C163.626 64.6943 167.076 66.0127 169.273 67.4189L165.846 83.7007C162.857 81.811 159.583 80.2729 156.024 79.0864C152.508 77.8999 148.487 77.3066 143.961 77.3066C138.643 77.3066 134.798 78.2075 132.425 80.0093C130.096 81.7671 128.932 84.2939 128.932 87.5898C128.932 89.9189 129.503 91.9185 130.645 93.5884C131.832 95.2583 133.568 96.8623 135.853 98.4004C138.138 99.8945 141.61 101.872 146.268 104.333C152.596 107.673 157.628 110.683 161.363 113.364C165.142 116 168.153 119.165 170.394 122.856C172.679 126.547 173.822 130.964 173.822 136.105C173.822 141.994 172.393 147.048 169.537 151.267C166.681 155.441 162.638 158.627 157.408 160.825C152.223 162.978 146.202 164.055 139.347 164.055C135.26 164.055 131.129 163.725 126.954 163.066C122.823 162.451 119.154 161.682 115.946 160.759C112.782 159.836 110.54 158.957 109.222 158.122L112.188 141.313Z" fill="white"/>
</svg>
