<svg width="230" height="230" viewBox="0 0 230 230" fill="none" xmlns="http://www.w3.org/2000/svg">
<g clip-path="url(#clip0)">
<rect width="230" height="230" fill="#001E36"/>
<path d="M37.5 -4H192.5C216 -4 235 15 235 38.5V187.5C235 211 216 230 192.5 230H37.5C14 230 -5 211 -5 187.5V38.5C-5 15 14 -4 37.5 -4Z" fill="#001E36"/>
<path d="M49 160.1V57.2C49 56.5 49.3 56.1 50 56.1C51.7 56.1 53.3 56.1 55.6 56C58 55.9 60.5 55.9 63.2 55.8C65.9 55.7 68.8 55.7 71.9 55.6C75 55.5 78 55.5 81 55.5C89.2 55.5 96 56.5 101.6 58.6C106.6 60.3 111.2 63.1 115 66.8C118.2 70 120.7 73.9 122.3 78.2C123.8 82.4 124.6 86.7 124.6 91.2C124.6 99.8 122.6 106.9 118.6 112.5C114.6 118.1 109 122.3 102.5 124.7C95.7 127.2 88.2 128.1 80 128.1C77.6 128.1 76 128.1 75 128C74 127.9 72.6 127.9 70.7 127.9V160C70.8 160.7 70.3 161.3 69.6 161.4C69.5 161.4 69.4 161.4 69.2 161.4H50.2C49.4 161.4 49 161 49 160.1ZM70.8 75.4V109C72.2 109.1 73.5 109.2 74.7 109.2H80C83.9 109.2 87.8 108.6 91.5 107.4C94.7 106.5 97.5 104.6 99.7 102.1C101.8 99.6 102.8 96.2 102.8 91.8C102.9 88.7 102.1 85.6 100.5 82.9C98.8 80.3 96.4 78.3 93.5 77.2C89.8 75.7 85.8 75.1 81.7 75.2C79.1 75.2 76.8 75.2 74.9 75.3C72.9 75.2 71.5 75.3 70.8 75.4Z" fill="#31A8FF"/>
<path d="M187 102.9C184 101.3 180.8 100.2 177.4 99.5C173.7 98.7 170 98.2 166.2 98.2C164.2 98.1 162.1 98.4 160.2 98.9C158.9 99.2 157.8 99.9 157.1 100.9C156.6 101.7 156.3 102.7 156.3 103.6C156.3 104.5 156.7 105.4 157.3 106.2C158.2 107.3 159.4 108.2 160.7 108.9C163 110.1 165.4 111.2 167.8 112.2C173.2 114 178.4 116.5 183.2 119.5C186.5 121.6 189.2 124.4 191.1 127.8C192.7 131 193.5 134.5 193.4 138.1C193.5 142.8 192.1 147.5 189.5 151.4C186.7 155.4 182.8 158.5 178.3 160.3C173.4 162.4 167.4 163.5 160.2 163.5C155.6 163.5 151.1 163.1 146.6 162.2C143.1 161.6 139.6 160.5 136.4 159C135.7 158.6 135.2 157.9 135.3 157.1V139.7C135.3 139.4 135.4 139 135.7 138.8C136 138.6 136.3 138.7 136.6 138.9C140.5 141.2 144.6 142.8 149 143.8C152.8 144.8 156.8 145.3 160.8 145.3C164.6 145.3 167.3 144.8 169.1 143.9C170.7 143.2 171.8 141.5 171.8 139.7C171.8 138.3 171 137 169.4 135.7C167.8 134.4 164.5 132.9 159.6 131C154.5 129.2 149.8 126.8 145.4 123.8C142.3 121.6 139.7 118.7 137.8 115.3C136.2 112.1 135.4 108.6 135.5 105.1C135.5 100.8 136.7 96.7 138.9 93C141.4 89 145.1 85.8 149.4 83.8C154.1 81.4 160 80.3 167.1 80.3C171.2 80.3 175.4 80.6 179.5 81.2C182.5 81.6 185.4 82.4 188.1 83.5C188.5 83.6 188.9 84 189.1 84.4C189.2 84.8 189.3 85.2 189.3 85.6V101.9C189.3 102.3 189.1 102.7 188.8 102.9C187.9 103.1 187.4 103.1 187 102.9Z" fill="#31A8FF"/>
</g>
<defs>
<clipPath id="clip0">
<rect width="230" height="230" fill="white"/>
</clipPath>
</defs>
</svg>
