<svg width="230" height="230" viewBox="0 0 230 230" fill="none" xmlns="http://www.w3.org/2000/svg">
<g clip-path="url(#clip0)">
<rect width="230" height="230" fill="#330000"/>
<path d="M37.5 -4H192.5C216 -4 235 15 235 38.5V187.5C235 211 216 230 192.5 230H37.5C14 230 -5 211 -5 187.5V38.5C-5 15 14 -4 37.5 -4Z" fill="#330000"/>
<path d="M111.3 136.4H74.1L66.5 159.9C66.3 160.8 65.5 161.4 64.6 161.3H45.8C44.7 161.3 44.4 160.7 44.7 159.5L76.9 66.8C77.2 65.8 77.5 64.7 77.9 63.5C78.3 61.4 78.5 59.2 78.5 57C78.4 56.5 78.8 56 79.3 55.9C79.4 55.9 79.5 55.9 79.6 55.9H105.2C106 55.9 106.4 56.2 106.5 56.7L143 159.7C143.3 160.8 143 161.3 142 161.3H121.1C120.4 161.4 119.7 160.9 119.5 160.2L111.3 136.4ZM79.9 116.1H105.3C104.7 114 103.9 111.5 103 108.9C102.1 106.2 101.2 103.3 100.3 100.3C99.3 97.2 98.4 94.2 97.4 91.1C96.4 88 95.5 85.1 94.7 82.2C93.9 79.4 93.2 76.8 92.5 74.4H92.3C91.4 78.7 90.3 83 88.9 87.3C87.4 92.1 85.9 97.1 84.3 102.1C82.9 107.2 81.4 111.9 79.9 116.1Z" fill="#FF9A00"/>
<path d="M164.8 73C161.5 73.1 158.3 71.8 155.9 69.5C153.6 67 152.4 63.7 152.5 60.3C152.4 56.9 153.7 53.7 156.1 51.4C158.5 49.1 161.7 47.9 165 47.9C168.9 47.9 171.9 49.1 174.1 51.4C176.3 53.8 177.5 57 177.4 60.3C177.5 63.7 176.3 67 173.9 69.5C171.6 71.9 168.2 73.2 164.8 73ZM153.6 159.8V82.8C153.6 81.8 154 81.4 154.9 81.4H174.7C175.6 81.4 176 81.9 176 82.8V159.8C176 160.9 175.6 161.4 174.7 161.4H155.1C154.1 161.4 153.6 160.8 153.6 159.8Z" fill="#FF9A00"/>
</g>
<defs>
<clipPath id="clip0">
<rect width="230" height="230" fill="white"/>
</clipPath>
</defs>
</svg>
