<svg width="250" height="80" viewBox="0 0 250 80" fill="none" xmlns="http://www.w3.org/2000/svg">
<path d="M35.2792 7.34695H40.1493C56.3831 7.34695 73.4286 21.2245 73.4286 40.8163C73.4286 60.4082 56.3831 75.102 40.1493 75.102H35.2792C19.0455 75.102 2 60.4082 2 40.8163C2 21.2245 19.0455 7.34695 35.2792 7.34695ZM41.7727 13.0612C41.7727 9.79593 32.8442 9.79593 32.8442 13.0612V68.5714C32.8442 71.8367 41.7727 71.8367 41.7727 68.5714V13.0612Z" fill="white"/>
<path d="M78.7334 40.8163C78.7334 39.1837 79.5451 38.3673 81.9802 38.3673H157.467C159.091 38.3673 160.714 36.7347 162.337 36.7347C168.019 36.7347 171.266 41.6327 171.266 45.7143C171.266 47.3469 170.454 48.1633 168.019 48.1633H150.974V73.4694C150.974 78.3673 143.668 80 137.987 80C136.363 80 134.74 78.3673 134.74 76.7347V48.1633H115.259V73.4694C115.259 78.3673 107.954 80 102.272 80C100.649 80 99.0256 78.3673 99.0256 76.7347V48.1633H86.8503C81.9802 48.1633 78.7334 44.898 78.7334 40.8163Z" fill="white"/>
<path d="M214.721 0H209.851C193.617 0 176.571 15.5102 176.571 37.551C176.571 59.5918 193.617 75.102 209.851 75.102H215.532C231.766 75.102 248.812 59.5918 248.812 37.551C248 15.5102 230.955 0 214.721 0ZM239.071 42.449H186.312C183.877 42.449 182.253 40.8163 182.253 38.3673C182.253 35.9184 183.877 34.2857 186.312 34.2857H239.071C241.506 34.2857 243.13 35.9184 243.13 38.3673C243.13 40.8163 241.506 42.449 239.071 42.449Z" fill="white"/>
</svg>
