<?xml version="1.0" encoding="utf-8"?>
<!-- Generator: Adobe Illustrator 24.1.1, SVG Export Plug-In . SVG Version: 6.00 Build 0)  -->
<svg version="1.1" id="Layer_1" xmlns="http://www.w3.org/2000/svg" xmlns:xlink="http://www.w3.org/1999/xlink" x="0px" y="0px"
	 viewBox="0 0 227 68" style="enable-background:new 0 0 227 68;" xml:space="preserve">
<style type="text/css">
	.st0{clip-path:url(#SVGID_2_);}
	.st1{fill:#0F0F0F;}
</style>
<g>
	<g>
		<defs>
			<rect id="SVGID_1_" width="227" height="68"/>
		</defs>
		<clipPath id="SVGID_2_">
			<use xlink:href="#SVGID_1_"  style="overflow:visible;"/>
		</clipPath>
		<g class="st0">
			<path class="st1" d="M32.3,0h4.6c15.3,0,31.3,13,31.3,31.3S52.1,63.4,36.9,63.4h-4.6C17.1,63.4,1,50.4,1,31.3S17.1,0,32.3,0z
				 M38.5,5.3c0-3.1-8.4-3.1-8.4,0v52c0,3.1,8.4,3.1,8.4,0V5.3z"/>
			<path class="st1" d="M191.1,0h4.6C210.9,0,227,13,227,31.3s-16.1,32.1-31.3,32.1h-5.3C175,63.4,159,49.7,159,31.3
				C159,13,175.8,0,191.1,0z M197.2,5.3c0-3.1-8.4-3.1-8.4,0v52c0,3.1,8.4,3.1,8.4,0V5.3z"/>
			<path class="st1" d="M70.3,31.3c0-1.5,0.8-2.3,3.1-2.3h71.1c1.5,0,3.1-1.5,4.6-1.5c5.4,0,8.4,4.6,8.4,8.4c0,1.5-0.8,2.3-3.1,2.3
				h-16.8v23.7c0,4.6-6.9,6.1-12.2,6.1c-1.5,0-3.1-1.5-3.1-3.1V38.2H104v23.7c0,4.6-6.9,6.1-12.2,6.1c-1.5,0-3.1-1.5-3.1-3.1V38.2
				H77.2C72.6,38.2,70.3,35.1,70.3,31.3z"/>
		</g>
	</g>
</g>
</svg>
