<svg width="227" height="68" viewBox="0 0 227 68" fill="none" xmlns="http://www.w3.org/2000/svg">
<g clip-path="url(#clip0)">
<path d="M32.3367 0H36.9226C52.2088 0 68.2593 12.9888 68.2593 31.3258C68.2593 49.6629 52.2088 63.4157 36.9226 63.4157H32.3367C17.0505 63.4157 1 50.427 1 31.3258C1 12.2247 17.0505 0 32.3367 0ZM38.4512 5.34831C38.4512 2.29213 30.0438 2.29213 30.0438 5.34831V57.3034C30.0438 60.3596 38.4512 60.3596 38.4512 57.3034V5.34831Z" fill="#FCFF63"/>
<path d="M191.077 0H195.663C210.949 0 227 12.9888 227 31.3258C227 49.6629 210.949 63.4157 195.663 63.4157H190.313C175.027 63.4157 158.976 49.6629 158.976 31.3258C158.976 12.9888 175.791 0 191.077 0ZM197.192 5.34831C197.192 2.29213 188.784 2.29213 188.784 5.34831V57.3034C188.784 60.3596 197.192 60.3596 197.192 57.3034V5.34831Z" fill="#FCFF63"/>
<path d="M70.3162 31.3259C70.3162 29.7978 71.0805 29.0338 73.3734 29.0338H144.454C145.983 29.0338 147.511 27.5057 149.04 27.5057C154.39 27.5057 157.447 32.0899 157.447 35.9102C157.447 37.4382 156.683 38.2023 154.39 38.2023H137.575V61.8877C137.575 66.472 130.697 68 125.346 68C123.818 68 122.289 66.472 122.289 64.9439V38.2023H103.946V61.8877C103.946 66.472 97.067 68 91.7168 68C90.1882 68 88.6596 66.472 88.6596 64.9439V38.2023H77.195C72.6091 38.2023 70.3162 35.1461 70.3162 31.3259Z" fill="#FCFF63"/>
</g>
<defs>
<clipPath id="clip0">
<rect width="227" height="68" fill="white"/>
</clipPath>
</defs>
</svg>
