<svg width="262" height="273" viewBox="0 0 262 273" fill="none" xmlns="http://www.w3.org/2000/svg">
<path d="M100.451 57.2377C126.026 25.6548 172.362 20.7847 203.945 46.3601C235.528 71.9355 240.398 118.271 214.823 149.854L161.474 215.735C135.899 247.318 89.5626 252.188 57.9796 226.613C26.3966 201.037 21.5265 154.701 47.1019 123.118L100.451 57.2377Z" fill="#8B97FF" fill-opacity="0.3"/>
<path d="M112.335 246.372H209.73C209.73 246.372 203.008 214.826 194.031 200.492C185.054 186.157 176.709 151.826 181.761 145.984C186.814 140.098 203.82 134.121 203.82 134.121C203.82 134.121 207.204 116.237 207.114 115.428C206.978 114.574 168.544 88.511 168.544 88.511L142.695 163.689L151.898 166.475L153.341 165.442C153.341 165.442 157.311 176.136 154.334 179.866C151.356 183.551 112.335 246.372 112.335 246.372Z" fill="white"/>
<path d="M130.65 158.971C151.266 166.52 168.273 144.906 171.16 129.493C174.137 113.54 180.588 90.2635 180.588 90.2635L191.866 103.385C192.227 85.2755 179.1 69.0536 160.649 66.1328L159.612 65.953C139.447 62.7176 120.32 76.5579 117.072 96.5995L113.238 120.55C110.756 136.098 118.11 150.972 130.65 158.971Z" fill="#EEEEEE"/>
<path d="M208.376 243.541C208.376 243.541 206.166 219.275 198.768 208.266C191.37 197.256 176.167 178.383 179.19 158.162C182.212 137.941 194.843 134.66 194.843 134.66L204.316 128.504C204.316 128.504 203.459 143.648 199.354 155.016C195.249 166.385 186.317 190.471 202.512 193.302C212.436 195.055 220.601 195.054 220.601 208.49C220.601 221.162 202.512 215.95 202.512 215.95" fill="#1E1E1E"/>
<path d="M202.512 246.372C202.512 246.372 202.512 227.498 193.49 210.737C188.889 202.154 181.761 195.055 181.761 195.055C181.761 195.055 154.153 215.59 144.77 246.686L202.512 246.372Z" fill="#FFD561"/>
<path d="M154.244 113.675C152.935 113.675 151.898 112.642 151.898 111.338V110.035C151.898 108.732 152.935 107.699 154.244 107.699C155.552 107.699 156.589 108.732 156.589 110.035V111.338C156.589 112.597 155.552 113.675 154.244 113.675Z" fill="black"/>
<path d="M123.117 111.428C121.809 111.428 120.771 110.395 120.771 109.092V107.789C120.771 106.485 121.809 105.452 123.117 105.452C124.425 105.452 125.463 106.485 125.463 107.789V109.092C125.463 110.35 124.425 111.428 123.117 111.428Z" fill="black"/>
<path d="M125.373 117.27C126.636 112.147 129.433 102.89 133.042 104.688C136.65 106.485 135.748 116.371 135.748 119.517C135.748 122.662 135.748 127.156 131.237 128.055C126.726 128.953 123.568 124.46 125.373 117.27Z" fill="white"/>
<path d="M140.394 138.705C140.259 138.705 140.214 138.705 140.214 138.705L140.349 135.11C140.394 135.11 143.327 135.2 147.251 133.582C150.86 132.144 151.672 130.481 151.717 130.436C151.717 130.481 151.672 130.481 151.672 130.481L155.01 131.829C154.875 132.144 153.657 134.84 148.604 136.907C144.454 138.57 141.251 138.705 140.394 138.705Z" fill="#1E1E1E"/>
<path d="M147.522 244.215L144.68 242.867C145.222 241.698 158.259 214.422 167.371 205.345C176.438 196.313 183.385 192.044 183.656 191.864L185.325 194.56C185.235 194.605 178.378 198.874 169.581 207.592C160.875 216.264 147.657 243.9 147.522 244.215Z" fill="black"/>
<path d="M117.252 241.204L114.591 239.541C114.907 239.047 145.086 191.145 149.507 183.641C153.612 176.676 151.627 170.609 151.627 170.564L154.604 169.576C154.694 169.89 157.04 177.08 152.213 185.258C147.792 192.808 117.568 240.71 117.252 241.204Z" fill="black"/>
<path d="M121.764 108.732L119.508 107.923C119.508 107.923 121.538 105.901 123.117 105.901V108.732" fill="black"/>
<path d="M152.89 110.979L150.635 110.17C150.635 110.17 152.665 108.148 154.244 108.148V110.979" fill="black"/>
<path d="M154.198 116.326C153.657 116.326 153.116 116.057 152.845 115.518C152.394 114.754 152.664 113.81 153.431 113.361C153.702 113.226 154.83 112.687 159.476 111.294C160.333 111.024 161.19 111.518 161.461 112.327C161.732 113.181 161.236 114.035 160.424 114.304C156.093 115.607 155.1 116.057 155.01 116.102C154.694 116.281 154.469 116.326 154.198 116.326Z" fill="white"/>
<path d="M119.463 115.428C118.922 115.428 118.38 115.158 118.11 114.619C117.658 113.855 117.929 112.911 118.696 112.462C118.967 112.327 120.094 111.788 124.741 110.395C125.553 110.125 126.455 110.62 126.726 111.428C126.996 112.237 126.5 113.136 125.688 113.406C121.358 114.709 120.365 115.158 120.275 115.203C119.959 115.383 119.734 115.428 119.463 115.428Z" fill="white"/>
<path d="M159.927 208.94H134.71V212.085H159.927V208.94Z" fill="black"/>
<path d="M206.256 94.128C203.414 79.5237 165.296 61.9986 165.296 61.9986C165.296 61.9986 157.988 57.3702 150.003 57.0557C142.695 56.786 135.342 58.1791 140.304 67.0764L145.627 67.0315C147.928 77.187 171.34 73.1428 174.363 72.5586L175.22 73.3225L177.701 77.0522L178.378 80.018C176.303 82.8939 170.844 92.5552 179.19 105.497C181.22 108.642 183.385 110.799 185.55 112.282L188.573 125.898C188.573 125.898 196.693 115.248 201.429 118.753C206.166 122.258 206.166 122.258 206.166 122.258C206.166 122.258 209.098 108.732 206.256 94.128Z" fill="#1E1E1E"/>
<path d="M119.508 94.802L118.2 92.9596C118.335 92.8698 121.493 90.6679 127.222 91.971L126.726 94.1729C122.034 93.0944 119.598 94.7121 119.508 94.802Z" fill="#1E1E1E"/>
<path d="M201.88 108.732C201.79 108.732 201.7 108.732 201.61 108.687C200.753 108.508 200.166 107.699 200.347 106.845C201.745 99.3405 200.347 93.2742 196.242 88.8255C193.174 85.5002 189.746 84.3768 189.7 84.3768C188.888 84.1072 188.437 83.2085 188.663 82.3996C188.934 81.5908 189.836 81.1414 190.648 81.3661C190.828 81.411 207.249 86.9831 203.459 107.429C203.279 108.193 202.602 108.732 201.88 108.732Z" fill="white"/>
<path d="M107.734 242.597C107.193 242.597 106.652 242.462 106.155 242.148C104.802 241.294 104.396 239.451 105.253 238.103L127.403 203.637C128.26 202.289 130.109 201.885 131.463 202.739C132.816 203.592 133.222 205.435 132.365 206.783L110.215 241.249C109.629 242.148 108.682 242.597 107.734 242.597Z" fill="#FFD561"/>
<path d="M193.309 128.414L192.091 127.875C192.182 127.695 193.896 123.876 201.7 123.741L201.745 125.089C194.843 125.224 193.309 128.369 193.309 128.414Z" fill="black"/>
<path d="M194.618 131.38C194.076 131.38 193.625 131.29 193.355 131.11C193.129 130.931 192.994 130.706 192.994 130.436C192.949 129.583 193.941 128.953 195.43 127.965C196.332 127.381 197.324 126.707 197.866 126.078C198.001 125.943 198.046 125.853 198.091 125.808C197.956 125.718 197.64 125.673 197.46 125.673L197.505 124.325C197.866 124.325 199.039 124.46 199.399 125.269C199.625 125.808 199.445 126.347 198.903 126.976C198.227 127.695 197.144 128.414 196.197 129.088C195.791 129.358 195.204 129.762 194.798 130.077C195.52 130.032 196.648 129.852 197.73 129.583L198.046 130.886C196.918 131.11 195.61 131.38 194.618 131.38Z" fill="black"/>
<path d="M221.459 211.456L218.797 210.917C219.744 206.423 219.338 202.918 217.534 200.492C215.91 198.2 213.068 196.807 209.098 196.358C200.527 195.369 194.527 191.19 191.776 184.27C189.159 177.799 194.663 163.509 197.279 156.679C197.595 155.825 197.866 155.106 198.091 154.567C199.445 150.882 209.82 112.776 204.362 92.9147C199.219 74.0415 154.289 58.4487 153.837 58.3139L154.695 55.7525C156.589 56.4265 201.429 71.9295 206.978 92.1508C212.572 112.642 202.016 151.646 200.617 155.421C200.392 156.005 200.121 156.724 199.805 157.578C197.505 163.599 192.091 177.754 194.302 183.236C196.693 189.168 201.926 192.763 209.459 193.617C214.196 194.156 217.669 195.908 219.744 198.829C222 201.975 222.541 206.199 221.459 211.456Z" fill="#4F4F4F"/>
<path d="M152.755 162.386C152.258 162.431 151.762 162.431 151.221 162.431C149.461 162.431 147.702 162.296 145.943 162.026C137.101 160.633 128.891 155.69 123.342 148.501C117.703 141.176 115.358 132.369 116.756 123.696L121.132 96.5096C122.395 88.6458 126.5 81.456 132.635 76.2883C138.725 71.1656 146.439 68.3346 154.288 68.3346V64.2904C136.154 64.2904 120.049 77.5016 117.117 95.8355L112.741 123.022C109.448 143.378 124.876 162.701 145.311 165.981C147.296 166.295 149.281 166.43 151.221 166.43C151.988 166.43 152.755 166.385 153.521 166.34L152.755 162.386Z" fill="#4F4F4F"/>
<path d="M181.761 149.31C183.43 146.613 184.783 143.648 185.776 140.502L181.761 149.31Z" fill="#4F4F4F"/>
<path d="M209.595 248.484H207.339C207.429 222.6 194.708 203.278 187.896 192.898C187.22 191.864 186.588 190.875 186.002 190.022C179.416 179.731 178.919 168.812 178.604 161.622C178.243 153.578 178.468 144.501 186.137 139.199C187.49 138.255 189.385 137.312 191.595 136.188C196.377 133.762 202.377 130.751 203.73 127.201C204.903 124.19 205.129 121.898 204.362 120.55C203.911 119.697 203.009 119.157 201.655 118.933C194.483 117.585 187.851 128.549 187.806 128.684L185.866 127.56C186.182 127.066 193.355 115.113 202.106 116.731C204.136 117.09 205.58 118.034 206.392 119.472C207.52 121.449 207.339 124.28 205.896 128.01C204.227 132.324 197.821 135.559 192.678 138.165C190.648 139.199 188.708 140.187 187.49 140.996C180.769 145.625 180.543 153.668 180.904 161.442C181.265 168.857 181.716 178.967 187.941 188.763C188.483 189.617 189.114 190.606 189.791 191.639C196.738 202.199 209.685 221.926 209.595 248.484Z" fill="#4F4F4F"/>
<path d="M192.723 116.956C188.257 116.956 181.31 115.068 176.032 104.868C171.385 95.8355 173.235 89.0052 174.588 83.9724C175.445 80.9167 176.077 78.4902 175.085 76.513C173.686 73.727 171.115 73.8618 166.288 74.3561C165.611 74.4459 164.935 74.4909 164.213 74.5358H163.987C157.988 75.0301 147.883 75.8839 145.266 70.1321C144.138 67.6606 143.868 65.6384 144.454 64.1556C144.95 62.9423 145.808 62.5379 145.988 62.4929L146.98 65.0093C147.071 64.9644 147.071 64.9644 147.071 64.9644C146.845 65.1442 146.439 66.2676 147.702 69.0536C149.552 73.0529 159.115 72.2441 163.717 71.8846H163.942C164.619 71.8396 165.296 71.7498 165.972 71.7048C170.483 71.2555 175.175 70.7612 177.475 75.3447C178.919 78.2206 178.107 81.2313 177.16 84.6914C175.851 89.5445 174.182 95.521 178.378 103.609C185.641 117.674 195.971 113.81 196.061 113.765L197.054 116.281C197.099 116.281 195.339 116.956 192.723 116.956Z" fill="#4F4F4F"/>
<path d="M159.522 99.1608C155.191 96.7792 147.477 97.0938 147.387 97.0938L147.251 93.9482C147.612 93.9482 155.913 93.6337 161.01 96.4197L159.522 99.1608Z" fill="white"/>
<path d="M140.62 71.4352C140.439 71.2555 136.56 66.8068 137.597 62.5828C138.906 57.4152 144.003 55.8424 146.529 55.7076L146.62 58.4037L146.575 57.0557L146.62 58.4037C146.394 58.4037 141.342 58.7183 140.214 63.2119C139.627 65.5935 141.748 68.6492 142.605 69.6378L140.62 71.4352Z" fill="#4F4F4F"/>
<path d="M141.612 60.0664C141.206 60.0664 140.8 59.8866 140.485 59.5721C139.898 58.943 139.898 57.9544 140.53 57.3702C147.928 50.3602 158.168 56.4715 158.619 56.6962C159.386 57.1455 159.612 58.1341 159.161 58.8531C158.709 59.617 157.717 59.8417 156.995 59.3923C156.634 59.1677 148.379 54.3146 142.74 59.617C142.379 59.9316 142.018 60.0664 141.612 60.0664Z" fill="white"/>
<path d="M128.846 105.137C128.756 105.137 128.665 105.137 128.575 105.092C127.853 104.958 127.357 104.239 127.492 103.52C128.35 98.8463 126.455 97.8577 126.455 97.8577C125.778 97.5881 125.417 96.7792 125.688 96.1052C125.959 95.4311 126.771 95.0716 127.447 95.3413C127.628 95.3862 131.462 97.0039 130.154 104.014C130.064 104.688 129.477 105.137 128.846 105.137Z" fill="#CACACA"/>
<path d="M81.2537 241.788C81.2537 241.788 74.5322 230.464 67.5851 225.341C60.638 220.219 56.7133 215.905 52.518 216.04C48.3227 216.175 45.5258 216.983 47.1498 222.825C47.1498 222.825 41.5109 221.522 40.8794 223.274C40.2478 225.027 41.3756 228.262 41.3756 228.262C41.3756 228.262 37.9472 229.835 38.9847 232.666C40.0223 235.497 35.0601 233.25 38.8945 240.125C38.8945 240.125 39.887 243.72 45.4356 241.833L62.262 249.697C62.262 249.697 67.3595 252.708 72.9533 249.697C78.5019 246.686 83.3288 248.484 83.3288 248.484L81.2537 241.788Z" fill="white"/>
<path d="M49.0446 234.823C45.7515 234.823 39.6164 229.745 38.9849 225.656C38.7142 223.859 39.3909 222.825 40.0224 222.241C41.3306 221.073 43.496 220.983 45.1651 221.162C44.8493 219.365 45.0748 217.388 46.2928 216.04C48.0071 214.152 50.9844 213.973 55.1346 215.411C59.4201 216.938 72.3219 227.409 73.8105 228.577C74.397 229.026 74.4872 229.88 73.991 230.464C73.5398 231.048 72.6827 231.138 72.0963 230.644C68.2168 227.498 57.4804 219.095 54.2324 217.927C51.255 216.893 49.1348 216.849 48.2777 217.792C47.4206 218.736 47.6462 220.848 48.3228 222.241C48.5484 222.735 48.5033 223.274 48.1424 223.679C47.8266 224.083 47.2853 224.263 46.7439 224.128C45.2102 223.724 42.5937 223.499 41.7817 224.218C41.6915 224.308 41.466 224.488 41.6013 225.207C41.872 227.004 44.2177 229.7 46.7891 231.273C48.0522 232.037 48.7739 232.127 49.0446 232.127C49.0446 232.082 49.0897 231.992 49.0897 231.902C49.1348 231.138 49.7664 230.599 50.4882 230.599C51.255 230.644 51.8415 231.228 51.7964 231.992C51.7513 233.655 50.7588 234.733 49.225 234.823C49.1799 234.778 49.1348 234.823 49.0446 234.823Z" fill="#2E2E2E"/>
<path d="M50.849 241.294C50.6234 241.294 50.3528 241.249 50.1272 241.159C49.1348 240.799 48.7739 239.766 48.7288 238.957C48.5483 237.924 47.6912 231.318 52.067 226.959C56.8938 222.151 63.2545 224.667 63.5251 224.757L62.4876 227.274L62.9838 226.015L62.4876 227.274C62.3072 227.184 57.4803 225.341 53.9616 228.846C50.8039 231.992 51.1647 236.845 51.3001 238.193C51.7061 237.879 52.2925 237.294 53.1496 236.261L55.6758 233.25C55.7661 233.115 55.9014 232.981 55.9916 232.891L56.0367 232.846L56.2172 232.621C56.7585 232.082 57.3449 231.767 58.1118 232.396C58.2923 232.531 58.5629 232.846 58.6081 233.34C59.4652 234.104 61.2245 235.407 63.2094 235.497C64.6529 235.542 65.9611 234.958 67.2242 233.655L69.1189 235.542C67.3145 237.339 65.2845 238.238 63.074 238.148C60.5027 238.058 58.3374 236.665 57.1194 235.632C56.6683 236.171 56.0367 236.935 55.1796 237.969C53.4203 240.26 52.067 241.294 50.849 241.294Z" fill="#2E2E2E"/>
<path d="M54.6835 227.184L54.0069 226.914C52.5633 226.33 51.8866 224.622 52.4731 223.185L59.5104 206.468C60.0968 205.03 61.8111 204.356 63.2546 204.94L63.9313 205.21C65.3748 205.794 66.0515 207.502 65.465 208.94L58.3826 225.656C57.7962 227.094 56.1271 227.768 54.6835 227.184Z" fill="#2E2E2E"/>
<path d="M43.496 238.912C43.0449 238.912 42.5487 238.867 42.0524 238.688C40.7442 238.283 39.7518 237.384 38.9849 235.946C37.7218 233.52 37.406 231.453 38.1278 229.79C38.9849 227.768 40.9247 227.139 41.0149 227.139C41.6013 226.959 42.2329 227.274 42.4133 227.903C42.5938 228.487 42.278 229.116 41.6915 229.296C41.6464 229.296 40.6089 229.655 40.2029 230.689C39.7969 231.722 40.0675 233.16 40.9698 234.913C42.3231 237.474 44.4884 236.531 44.8944 236.306C45.4358 236.036 46.1124 236.216 46.4282 236.8C46.6989 237.339 46.5184 238.013 45.9771 238.328C45.8418 238.418 44.8042 238.912 43.496 238.912Z" fill="#2E2E2E"/>
<path d="M42.5937 242.911C41.1501 242.911 39.887 242.507 38.9397 241.743C37.2255 240.395 36.9999 238.328 36.9999 238.238C36.9548 237.609 37.4059 237.07 38.0375 237.025C38.669 236.98 39.2104 237.429 39.2555 238.013C39.2555 238.058 39.3908 239.272 40.3833 239.991C41.105 240.575 42.1877 240.755 43.541 240.575C44.1726 240.485 44.7139 240.934 44.8041 241.563C44.8943 242.193 44.4432 242.732 43.8117 242.822C43.3606 242.911 42.9997 242.911 42.5937 242.911Z" fill="#2E2E2E"/>
<rect x="15" y="243" width="108" height="6" rx="3" fill="#1E1E1E"/>
</svg>
