<svg width="670" height="503" viewBox="0 0 670 503" fill="none" xmlns="http://www.w3.org/2000/svg">
<path d="M26.6602 109H8.44238V17.9746H26.6602V54.4102H63.0322V17.9746H81.25V109H63.0322V72.6279H26.6602V109ZM121.503 92.3691C122.18 92.5807 122.857 92.7288 123.535 92.8135C124.212 92.8558 124.889 92.877 125.566 92.877C127.258 92.877 128.888 92.6442 130.453 92.1787C132.019 91.7132 133.479 91.0573 134.833 90.2109C136.23 89.3223 137.457 88.2643 138.515 87.0371C139.615 85.7676 140.504 84.3711 141.181 82.8477L153.876 95.6064C152.268 97.8916 150.406 99.944 148.29 101.764C146.217 103.583 143.953 105.128 141.498 106.397C139.086 107.667 136.526 108.619 133.818 109.254C131.152 109.931 128.401 110.27 125.566 110.27C120.784 110.27 116.277 109.381 112.045 107.604C107.856 105.826 104.174 103.351 101 100.177C97.8688 97.0029 95.3933 93.2367 93.5736 88.8779C91.7539 84.4769 90.8441 79.6527 90.8441 74.4053C90.8441 69.0309 91.7539 64.1221 93.5736 59.6787C95.3933 55.2354 97.8688 51.4479 101 48.3164C104.174 45.1849 107.856 42.7516 112.045 41.0166C116.277 39.2816 120.784 38.4141 125.566 38.4141C128.401 38.4141 131.173 38.7526 133.881 39.4297C136.59 40.1068 139.15 41.0801 141.562 42.3496C144.016 43.6191 146.301 45.1849 148.417 47.0469C150.533 48.8665 152.395 50.9189 154.003 53.2041L121.503 92.3691ZM130.39 56.6318C129.586 56.3356 128.782 56.1452 127.978 56.0605C127.216 55.9759 126.412 55.9336 125.566 55.9336C123.196 55.9336 120.953 56.3779 118.837 57.2666C116.764 58.113 114.944 59.3402 113.378 60.9482C111.855 62.5563 110.649 64.5029 109.76 66.7881C108.871 69.0309 108.427 71.57 108.427 74.4053C108.427 75.04 108.448 75.7594 108.491 76.5635C108.575 77.3675 108.681 78.1927 108.808 79.0391C108.977 79.8431 109.168 80.626 109.379 81.3877C109.591 82.1494 109.866 82.8265 110.204 83.4189L130.39 56.6318ZM179.34 109H161.884V13.9756H179.34V109ZM209.183 109H191.727V13.9756H209.183V109ZM287.268 74.4053C287.268 79.4834 286.358 84.223 284.539 88.624C282.719 92.9827 280.243 96.7702 277.112 99.9863C273.98 103.16 270.299 105.678 266.067 107.54C261.877 109.36 257.371 110.27 252.546 110.27C247.764 110.27 243.258 109.36 239.026 107.54C234.836 105.678 231.155 103.16 227.981 99.9863C224.849 96.7702 222.374 92.9827 220.554 88.624C218.735 84.223 217.825 79.4834 217.825 74.4053C217.825 69.2425 218.735 64.4606 220.554 60.0596C222.374 55.6585 224.849 51.8711 227.981 48.6973C231.155 45.4811 234.836 42.9632 239.026 41.1436C243.258 39.3239 247.764 38.4141 252.546 38.4141C257.371 38.4141 261.877 39.2816 266.067 41.0166C270.299 42.7093 273.98 45.1426 277.112 48.3164C280.243 51.4479 282.719 55.2354 284.539 59.6787C286.358 64.0798 287.268 68.9886 287.268 74.4053ZM269.812 74.4053C269.812 71.6123 269.346 69.0944 268.415 66.8516C267.527 64.5664 266.3 62.6198 264.734 61.0117C263.168 59.3613 261.327 58.113 259.211 57.2666C257.138 56.3779 254.916 55.9336 252.546 55.9336C250.177 55.9336 247.934 56.3779 245.818 57.2666C243.744 58.113 241.925 59.3613 240.359 61.0117C238.835 62.6198 237.629 64.5664 236.741 66.8516C235.852 69.0944 235.408 71.6123 235.408 74.4053C235.408 77.029 235.852 79.4622 236.741 81.7051C237.629 83.9479 238.835 85.8945 240.359 87.5449C241.925 89.1953 243.744 90.5072 245.818 91.4805C247.934 92.4115 250.177 92.877 252.546 92.877C254.916 92.877 257.138 92.4326 259.211 91.5439C261.327 90.6553 263.168 89.4069 264.734 87.7988C266.3 86.1908 267.527 84.2441 268.415 81.959C269.346 79.6738 269.812 77.1559 269.812 74.4053ZM26.6602 232H8.44238V140.975H26.6602V232ZM60.8197 151.639C60.8197 153.501 60.6293 155.511 60.2484 157.669C59.9099 159.785 59.3386 161.901 58.5345 164.017C57.7728 166.09 56.7572 168.079 55.4877 169.983C54.2181 171.888 52.6947 173.496 50.9174 174.808L44.0619 169.983C45.2045 168.629 46.072 167.339 46.6644 166.111C47.2569 164.884 47.7224 163.657 48.0609 162.43C46.7914 162.218 45.6065 161.795 44.5062 161.16C43.406 160.525 42.4538 159.743 41.6498 158.812C40.8881 157.838 40.2744 156.738 39.809 155.511C39.3435 154.284 39.1107 152.993 39.1107 151.639C39.1107 150.2 39.3858 148.825 39.9359 147.513C40.5284 146.201 41.3112 145.058 42.2845 144.085C43.3002 143.069 44.4427 142.286 45.7123 141.736C47.0241 141.144 48.4206 140.848 49.9017 140.848C51.4252 140.848 52.8428 141.144 54.1547 141.736C55.5088 142.286 56.6726 143.069 57.6459 144.085C58.6192 145.058 59.3809 146.201 59.931 147.513C60.5235 148.825 60.8197 150.2 60.8197 151.639ZM158.329 232H141.063V188.836C141.063 187.651 140.83 186.53 140.365 185.472C139.942 184.414 139.328 183.483 138.524 182.679C137.72 181.875 136.789 181.261 135.731 180.838C134.673 180.372 133.552 180.14 132.367 180.14C131.182 180.14 130.061 180.372 129.003 180.838C127.987 181.261 127.077 181.875 126.273 182.679C125.511 183.483 124.898 184.414 124.432 185.472C124.009 186.53 123.798 187.651 123.798 188.836V232H106.468V188.836C106.468 187.651 106.236 186.53 105.77 185.472C105.347 184.414 104.733 183.483 103.929 182.679C103.125 181.875 102.194 181.261 101.136 180.838C100.079 180.372 98.9571 180.14 97.7722 180.14C96.5873 180.14 95.4659 180.372 94.4079 180.838C93.3923 181.261 92.4825 181.875 91.6785 182.679C90.9167 183.483 90.3031 184.414 89.8376 185.472C89.4145 186.53 89.2029 187.651 89.2029 188.836V232H71.8738V164.017H76.0632L80.7605 169.222C83.1726 167.19 85.8174 165.625 88.6951 164.524C91.615 163.382 94.6407 162.811 97.7722 162.811C100.946 162.811 104.035 163.403 107.04 164.588C110.087 165.773 112.753 167.825 115.038 170.745C116.096 169.306 117.302 168.079 118.656 167.063C120.01 166.048 121.428 165.223 122.909 164.588C124.432 163.953 125.998 163.509 127.606 163.255C129.214 162.959 130.801 162.811 132.367 162.811C135.964 162.811 139.328 163.488 142.46 164.842C145.634 166.196 148.384 168.058 150.712 170.428C153.081 172.755 154.943 175.506 156.298 178.68C157.652 181.854 158.329 185.239 158.329 188.836V232ZM81.377 309.487C81.377 313.677 80.8268 317.718 79.7266 321.611C78.6686 325.462 77.1452 329.08 75.1562 332.466C73.1673 335.809 70.7975 338.877 68.0469 341.67C65.2962 344.421 62.2282 346.79 58.8428 348.779C55.4574 350.768 51.818 352.313 47.9248 353.413C44.0739 354.471 40.0537 355 35.8643 355H8.44238V263.975H35.8643C40.0537 263.975 44.0739 264.525 47.9248 265.625C51.818 266.683 55.4574 268.206 58.8428 270.195C62.2282 272.184 65.2962 274.575 68.0469 277.368C70.7975 280.119 73.1673 283.187 75.1562 286.572C77.1452 289.915 78.6686 293.534 79.7266 297.427C80.8268 301.278 81.377 305.298 81.377 309.487ZM63.1592 309.487C63.1592 305.721 62.4398 302.188 61.001 298.887C59.6045 295.586 57.6579 292.708 55.1611 290.254C52.7067 287.757 49.8079 285.789 46.4648 284.351C43.1641 282.912 39.6305 282.192 35.8643 282.192H26.7871V336.782H35.8643C39.6305 336.782 43.1641 336.084 46.4648 334.688C49.8079 333.249 52.7067 331.302 55.1611 328.848C57.6579 326.351 59.6045 323.452 61.001 320.151C62.4398 316.808 63.1592 313.254 63.1592 309.487ZM117.822 338.369C118.499 338.581 119.176 338.729 119.853 338.813C120.53 338.856 121.207 338.877 121.884 338.877C123.577 338.877 125.206 338.644 126.772 338.179C128.338 337.713 129.798 337.057 131.152 336.211C132.548 335.322 133.775 334.264 134.833 333.037C135.934 331.768 136.822 330.371 137.499 328.848L150.195 341.606C148.587 343.892 146.725 345.944 144.609 347.764C142.535 349.583 140.271 351.128 137.817 352.397C135.405 353.667 132.844 354.619 130.136 355.254C127.47 355.931 124.719 356.27 121.884 356.27C117.102 356.27 112.595 355.381 108.364 353.604C104.174 351.826 100.493 349.351 97.3187 346.177C94.1872 343.003 91.7116 339.237 89.892 334.878C88.0723 330.477 87.1625 325.653 87.1625 320.405C87.1625 315.031 88.0723 310.122 89.892 305.679C91.7116 301.235 94.1872 297.448 97.3187 294.316C100.493 291.185 104.174 288.752 108.364 287.017C112.595 285.282 117.102 284.414 121.884 284.414C124.719 284.414 127.491 284.753 130.2 285.43C132.908 286.107 135.468 287.08 137.88 288.35C140.335 289.619 142.62 291.185 144.736 293.047C146.852 294.867 148.714 296.919 150.322 299.204L117.822 338.369ZM126.708 302.632C125.904 302.336 125.1 302.145 124.296 302.061C123.535 301.976 122.731 301.934 121.884 301.934C119.514 301.934 117.272 302.378 115.156 303.267C113.082 304.113 111.262 305.34 109.697 306.948C108.173 308.556 106.967 310.503 106.078 312.788C105.19 315.031 104.745 317.57 104.745 320.405C104.745 321.04 104.767 321.759 104.809 322.563C104.894 323.368 104.999 324.193 105.126 325.039C105.296 325.843 105.486 326.626 105.698 327.388C105.909 328.149 106.184 328.826 106.523 329.419L126.708 302.632ZM195.526 355H155.917V337.734H195.526C196.711 337.734 197.727 337.311 198.573 336.465C199.419 335.618 199.843 334.603 199.843 333.418C199.843 332.191 199.419 331.387 198.573 331.006C197.727 330.625 196.711 330.435 195.526 330.435H177.499C174.494 330.435 171.68 329.863 169.056 328.721C166.433 327.578 164.148 326.034 162.201 324.087C160.254 322.098 158.71 319.792 157.567 317.168C156.467 314.544 155.917 311.73 155.917 308.726C155.917 305.721 156.467 302.907 157.567 300.283C158.71 297.66 160.254 295.374 162.201 293.428C164.148 291.481 166.433 289.958 169.056 288.857C171.68 287.715 174.494 287.144 177.499 287.144H212.601V304.409H177.499C176.314 304.409 175.298 304.832 174.452 305.679C173.606 306.525 173.182 307.541 173.182 308.726C173.182 309.953 173.606 311.011 174.452 311.899C175.298 312.746 176.314 313.169 177.499 313.169H195.526C198.488 313.169 201.281 313.677 203.905 314.692C206.529 315.666 208.814 317.041 210.76 318.818C212.707 320.596 214.252 322.733 215.394 325.229C216.537 327.726 217.108 330.456 217.108 333.418C217.108 336.423 216.537 339.237 215.394 341.86C214.252 344.442 212.707 346.727 210.76 348.716C208.814 350.662 206.529 352.207 203.905 353.35C201.281 354.45 198.488 355 195.526 355ZM245.936 268.545C245.936 270.153 245.618 271.655 244.983 273.052C244.391 274.448 243.566 275.675 242.508 276.733C241.45 277.749 240.202 278.574 238.763 279.209C237.366 279.801 235.864 280.098 234.256 280.098C232.648 280.098 231.124 279.801 229.686 279.209C228.289 278.574 227.062 277.749 226.004 276.733C224.988 275.675 224.163 274.448 223.528 273.052C222.936 271.655 222.64 270.153 222.64 268.545C222.64 266.979 222.936 265.498 223.528 264.102C224.163 262.663 224.988 261.436 226.004 260.42C227.062 259.362 228.289 258.537 229.686 257.944C231.124 257.31 232.648 256.992 234.256 256.992C235.864 256.992 237.366 257.31 238.763 257.944C240.202 258.537 241.45 259.362 242.508 260.42C243.566 261.436 244.391 262.663 244.983 264.102C245.618 265.498 245.936 266.979 245.936 268.545ZM242.952 355H225.496V287.017H242.952V355ZM303.708 320.405C303.708 318.035 303.243 315.75 302.312 313.55C301.423 311.307 300.196 309.339 298.63 307.646C297.065 305.911 295.224 304.536 293.108 303.521C291.034 302.463 288.813 301.934 286.443 301.934C284.073 301.934 281.83 302.336 279.714 303.14C277.641 303.944 275.821 305.129 274.255 306.694C272.732 308.26 271.526 310.207 270.637 312.534C269.749 314.819 269.304 317.443 269.304 320.405C269.304 323.241 269.749 325.801 270.637 328.086C271.526 330.329 272.732 332.254 274.255 333.862C275.821 335.47 277.641 336.719 279.714 337.607C281.83 338.454 284.073 338.877 286.443 338.877C288.813 338.877 291.034 338.369 293.108 337.354C295.224 336.296 297.065 334.92 298.63 333.228C300.196 331.493 301.423 329.525 302.312 327.324C303.243 325.081 303.708 322.775 303.708 320.405ZM321.165 346.431C321.165 351.213 320.255 355.698 318.435 359.888C316.615 364.077 314.119 367.738 310.945 370.869C307.813 374.001 304.132 376.476 299.9 378.296C295.71 380.116 291.225 381.025 286.443 381.025L277.747 380.898V363.569L286.316 363.696C289.024 363.696 291.331 363.337 293.235 362.617C295.139 361.94 296.747 360.988 298.059 359.761C299.371 358.576 300.408 357.201 301.169 355.635C301.973 354.069 302.608 352.419 303.074 350.684C302.397 351.784 301.423 352.694 300.154 353.413C298.884 354.09 297.467 354.64 295.901 355.063C294.377 355.529 292.769 355.846 291.077 356.016C289.426 356.185 287.882 356.27 286.443 356.27C281.661 356.27 277.154 355.444 272.922 353.794C268.733 352.144 265.051 349.795 261.877 346.748C258.746 343.659 256.27 339.893 254.451 335.449C252.631 331.006 251.721 325.991 251.721 320.405C251.721 315.285 252.631 310.524 254.451 306.123C256.27 301.722 258.746 297.913 261.877 294.697C265.051 291.481 268.733 288.963 272.922 287.144C277.154 285.324 281.661 284.414 286.443 284.414C288.643 284.414 290.823 284.689 292.981 285.239C295.139 285.789 297.234 286.551 299.265 287.524C301.296 288.498 303.222 289.64 305.041 290.952C306.903 292.264 308.638 293.682 310.247 295.205L316.975 287.144H321.165V346.431ZM350.881 355H333.552V287.017H337.741L343.454 293.618C346.247 291.079 349.4 289.132 352.912 287.778C356.467 286.382 360.169 285.684 364.02 285.684C368.167 285.684 372.082 286.488 375.763 288.096C379.445 289.661 382.661 291.841 385.412 294.634C388.163 297.384 390.321 300.622 391.887 304.346C393.495 308.027 394.299 311.963 394.299 316.152V355H376.97V316.152C376.97 314.375 376.631 312.703 375.954 311.138C375.277 309.53 374.346 308.133 373.161 306.948C371.976 305.763 370.601 304.832 369.035 304.155C367.469 303.478 365.798 303.14 364.02 303.14C362.201 303.14 360.487 303.478 358.879 304.155C357.271 304.832 355.874 305.763 354.689 306.948C353.504 308.133 352.573 309.53 351.896 311.138C351.219 312.703 350.881 314.375 350.881 316.152V355ZM432.838 338.369C433.515 338.581 434.192 338.729 434.869 338.813C435.546 338.856 436.223 338.877 436.901 338.877C438.593 338.877 440.223 338.644 441.788 338.179C443.354 337.713 444.814 337.057 446.168 336.211C447.565 335.322 448.792 334.264 449.85 333.037C450.95 331.768 451.839 330.371 452.516 328.848L465.211 341.606C463.603 343.892 461.741 345.944 459.625 347.764C457.552 349.583 455.288 351.128 452.833 352.397C450.421 353.667 447.861 354.619 445.153 355.254C442.487 355.931 439.736 356.27 436.901 356.27C432.119 356.27 427.612 355.381 423.38 353.604C419.191 351.826 415.509 349.351 412.335 346.177C409.204 343.003 406.728 339.237 404.908 334.878C403.089 330.477 402.179 325.653 402.179 320.405C402.179 315.031 403.089 310.122 404.908 305.679C406.728 301.235 409.204 297.448 412.335 294.316C415.509 291.185 419.191 288.752 423.38 287.017C427.612 285.282 432.119 284.414 436.901 284.414C439.736 284.414 442.508 284.753 445.216 285.43C447.924 286.107 450.485 287.08 452.897 288.35C455.351 289.619 457.636 291.185 459.752 293.047C461.868 294.867 463.73 296.919 465.338 299.204L432.838 338.369ZM441.725 302.632C440.921 302.336 440.117 302.145 439.313 302.061C438.551 301.976 437.747 301.934 436.901 301.934C434.531 301.934 432.288 302.378 430.172 303.267C428.098 304.113 426.279 305.34 424.713 306.948C423.19 308.556 421.984 310.503 421.095 312.788C420.206 315.031 419.762 317.57 419.762 320.405C419.762 321.04 419.783 321.759 419.825 322.563C419.91 323.368 420.016 324.193 420.143 325.039C420.312 325.843 420.502 326.626 420.714 327.388C420.926 328.149 421.201 328.826 421.539 329.419L441.725 302.632ZM490.547 355H473.218V287.017H477.408L483.121 295.078C485.914 292.539 489.087 290.592 492.642 289.238C496.197 287.842 499.878 287.144 503.687 287.144H518.985V304.409H503.687C501.867 304.409 500.154 304.748 498.545 305.425C496.937 306.102 495.541 307.033 494.356 308.218C493.171 309.403 492.24 310.799 491.563 312.407C490.886 314.015 490.547 315.729 490.547 317.549V355Z" fill="white"/>
<path d="M227.483 231.61C222.976 231.61 218.816 230.787 215.003 229.14C211.189 227.493 207.853 225.24 204.993 222.38C202.219 219.52 200.009 216.183 198.363 212.37C196.803 208.557 195.979 204.483 195.893 200.15V156.99C195.893 154.737 196.759 152.83 198.493 151.27C200.226 149.71 202.219 148.93 204.473 148.93C206.726 148.93 208.719 149.797 210.453 151.53C212.186 153.177 213.053 155.127 213.053 157.38V200.8C213.053 202.707 213.443 204.527 214.223 206.26C215.003 207.993 216.043 209.467 217.343 210.68C218.643 211.893 220.159 212.89 221.893 213.67C223.626 214.363 225.446 214.71 227.353 214.71C229.433 214.71 231.339 214.32 233.073 213.54C234.893 212.76 236.453 211.72 237.753 210.42C239.139 209.12 240.179 207.603 240.873 205.87C241.653 204.05 242.043 202.143 242.043 200.15V156.99C242.043 154.65 242.866 152.743 244.513 151.27C246.246 149.71 248.283 148.93 250.623 148.93C252.963 149.017 254.913 149.883 256.473 151.53C258.119 153.177 258.943 155.127 258.943 157.38V201.19C258.943 205.523 258.076 209.553 256.343 213.28C254.609 217.007 252.313 220.257 249.453 223.03C246.593 225.717 243.256 227.84 239.443 229.4C235.629 230.873 231.643 231.61 227.483 231.61ZM275.337 149.06C277.677 149.06 279.67 149.927 281.317 151.66C283.05 153.393 283.917 155.43 283.917 157.77V223.29C283.917 225.717 283.05 227.797 281.317 229.53C279.67 231.177 277.677 232 275.337 232C272.824 232 270.7 231.177 268.967 229.53C267.32 227.797 266.497 225.717 266.497 223.29V157.77C266.497 155.43 267.32 153.393 268.967 151.66C270.7 149.927 272.824 149.06 275.337 149.06ZM408.31 231.61C403.803 231.61 399.643 230.787 395.83 229.14C392.016 227.493 388.68 225.24 385.82 222.38C383.046 219.52 380.836 216.183 379.19 212.37C377.63 208.557 376.806 204.483 376.72 200.15V156.99C376.72 154.737 377.586 152.83 379.32 151.27C381.053 149.71 383.046 148.93 385.3 148.93C387.553 148.93 389.546 149.797 391.28 151.53C393.013 153.177 393.88 155.127 393.88 157.38V200.8C393.88 202.707 394.27 204.527 395.05 206.26C395.83 207.993 396.87 209.467 398.17 210.68C399.47 211.893 400.986 212.89 402.72 213.67C404.453 214.363 406.273 214.71 408.18 214.71C410.26 214.71 412.166 214.32 413.9 213.54C415.72 212.76 417.28 211.72 418.58 210.42C419.966 209.12 421.006 207.603 421.7 205.87C422.48 204.05 422.87 202.143 422.87 200.15V156.99C422.87 154.65 423.693 152.743 425.34 151.27C427.073 149.71 429.11 148.93 431.45 148.93C433.79 149.017 435.74 149.883 437.3 151.53C438.946 153.177 439.77 155.127 439.77 157.38V201.19C439.77 205.523 438.903 209.553 437.17 213.28C435.436 217.007 433.14 220.257 430.28 223.03C427.42 225.717 424.083 227.84 420.27 229.4C416.456 230.873 412.47 231.61 408.31 231.61ZM508.814 218.09C510.201 220.083 510.677 222.293 510.244 224.72C509.811 227.147 508.597 229.053 506.604 230.44C504.611 231.913 502.401 232.433 499.974 232C497.634 231.48 495.727 230.223 494.254 228.23L478.914 206L463.314 228.23C461.927 230.223 460.021 231.48 457.594 232C455.254 232.433 453.087 231.913 451.094 230.44C450.054 229.747 449.231 228.923 448.624 227.97C448.017 226.93 447.584 225.847 447.324 224.72C447.151 223.593 447.194 222.467 447.454 221.34C447.714 220.213 448.191 219.13 448.884 218.09L467.994 190.53L448.884 162.84C447.411 160.847 446.891 158.68 447.324 156.34C447.844 153.913 449.101 151.963 451.094 150.49C453.087 149.103 455.254 148.627 457.594 149.06C460.021 149.493 461.927 150.707 463.314 152.7L478.914 174.93L494.254 152.7C495.727 150.707 497.634 149.493 499.974 149.06C502.401 148.627 504.611 149.103 506.604 150.49C508.597 151.963 509.811 153.913 510.244 156.34C510.764 158.68 510.287 160.847 508.814 162.84L489.704 190.53L508.814 218.09Z" fill="white"/>
<path d="M329.574 156.404C333.068 149.478 341.146 147.331 347.617 151.608V151.608C354.089 155.885 356.503 164.968 353.01 171.894L324.761 227.907C321.268 234.833 313.19 236.981 306.718 232.704V232.704C300.246 228.426 297.832 219.344 301.325 212.418L329.574 156.404Z" fill="#FFE37E"/>
</svg>
